<svg width="6" height="12" viewBox="0 0 6 12" fill="none" xmlns="http://www.w3.org/2000/svg">
<path d="M1.37905 11.7126L5.78313 6.61078C6.07229 6.27545 6.07229 5.7006 5.78313 5.36527L1.37905 0.263473C1.22335 0.0958085 1.02317 6.32429e-08 0.800741 6.60694e-08C0.578313 6.88959e-08 0.378128 0.0958085 0.222428 0.287425C-0.0667288 0.622755 -0.0667288 1.17365 0.222428 1.50898L4.11492 5.98802L0.222428 10.4671C0.0667282 10.6347 9.85086e-08 10.8743 1.00921e-07 11.0898C1.03333e-07 11.3054 0.0667282 11.521 0.222428 11.7126C0.378128 11.8802 0.578313 12 0.800742 12C1.02317 12 1.22336 11.8802 1.37905 11.7126Z" fill="#0D0F1C"/>
</svg>
