<svg width="30" height="30" viewBox="0 0 30 30" fill="none" xmlns="http://www.w3.org/2000/svg">
<path d="M15.1429 20.75C15.1429 20.9071 15.2643 21.0357 15.4107 21.0357H22.0179C22.1643 21.0357 22.2857 20.9071 22.2857 20.75V19.0357C22.2857 18.8786 22.1643 18.75 22.0179 18.75H15.4107C15.2643 18.75 15.1429 18.8786 15.1429 19.0357V20.75ZM8.18214 20.9679L15.0393 15.2179C15.175 15.1036 15.175 14.8929 15.0393 14.7786L8.18214 9.03214C8.14075 8.99694 8.09012 8.97436 8.03627 8.96707C7.98243 8.95979 7.92762 8.96811 7.87836 8.99105C7.8291 9.01399 7.78745 9.05058 7.75837 9.09648C7.72929 9.14238 7.71399 9.19566 7.71429 9.25V11.4893C7.71429 11.575 7.75 11.6536 7.81786 11.7071L11.7393 15L7.81786 18.2929C7.78594 18.3196 7.76016 18.3529 7.74228 18.3905C7.72441 18.4281 7.71486 18.4691 7.71429 18.5107V20.75C7.71429 20.9929 7.99643 21.125 8.18214 20.9679ZM28.1429 0.714285H1.85714C1.225 0.714285 0.714287 1.225 0.714287 1.85714V28.1429C0.714287 28.775 1.225 29.2857 1.85714 29.2857H28.1429C28.775 29.2857 29.2857 28.775 29.2857 28.1429V1.85714C29.2857 1.225 28.775 0.714285 28.1429 0.714285ZM26.7143 26.7143H3.28572V3.28571H26.7143V26.7143Z" fill="#FBB7C0"/>
</svg>
