<svg width="24" height="32" viewBox="0 0 24 32" fill="none" xmlns="http://www.w3.org/2000/svg">
<path d="M16.2857 29.4286H7.71429C7.55714 29.4286 7.42857 29.5571 7.42857 29.7143V30.8571C7.42857 31.4893 7.93929 32 8.57143 32H15.4286C16.0607 32 16.5714 31.4893 16.5714 30.8571V29.7143C16.5714 29.5571 16.4429 29.4286 16.2857 29.4286ZM12 -7.15256e-07C5.53214 -7.15256e-07 0.285714 5.24643 0.285714 11.7143C0.285714 16.05 2.64286 19.8357 6.14286 21.8607V26C6.14286 26.6321 6.65357 27.1429 7.28571 27.1429H16.7143C17.3464 27.1429 17.8571 26.6321 17.8571 26V21.8607C21.3571 19.8357 23.7143 16.05 23.7143 11.7143C23.7143 5.24643 18.4679 -7.15256e-07 12 -7.15256e-07ZM16.5679 19.6357L15.2857 20.3786V24.5714H8.71429V20.3786L7.43214 19.6357C4.62143 18.0107 2.85714 15.0179 2.85714 11.7143C2.85714 6.66429 6.95 2.57143 12 2.57143C17.05 2.57143 21.1429 6.66429 21.1429 11.7143C21.1429 15.0179 19.3786 18.0107 16.5679 19.6357Z" fill="#B6244F"/>
</svg>
