<svg width="1560" height="1062" viewBox="0 0 1560 1062" fill="none" xmlns="http://www.w3.org/2000/svg">
<path d="M1559.77 920.341H0V921.121H1559.77V920.341Z" fill="#E0E0E0"/>
<path d="M422.917 953.377H315.605V954.157H422.917V953.377Z" fill="#E0E0E0"/>
<path d="M292.738 953.751H232.344V954.531H292.738V953.751Z" fill="#E0E0E0"/>
<path d="M668.332 951.941H545.921V952.721H668.332V951.941Z" fill="#E0E0E0"/>
<path d="M981.285 940.836H620.104V941.616H981.285V940.836Z" fill="#E0E0E0"/>
<path d="M1290.46 941.242H1125.16V942.022H1290.46V941.242Z" fill="#E0E0E0"/>
<path d="M666.773 615.28C665.057 615.28 663.341 615.28 661.594 615.436C650.724 616.204 640.159 619.367 630.655 624.698C621.152 630.029 612.945 637.397 606.624 646.273C600.303 655.149 596.024 665.314 594.094 676.039C592.164 686.763 592.63 697.782 595.46 708.305C603.518 739.728 607.41 772.074 607.033 804.512V898.972C607.033 902.282 608.348 905.455 610.688 907.796C613.028 910.136 616.202 911.45 619.511 911.45H919.362V615.28H666.773Z" fill="#E6E6E6"/>
<path d="M993.108 689.119C992.996 670.019 985.49 651.705 972.166 638.019C958.841 624.334 940.733 616.342 921.643 615.721C902.552 615.099 883.963 621.896 869.776 634.686C855.589 647.475 846.908 665.263 845.554 684.315C845.035 692.398 845.836 700.511 847.925 708.336C856.009 739.754 859.911 772.103 859.529 804.543V899.002C859.529 902.312 860.844 905.486 863.184 907.826C865.524 910.166 868.698 911.481 872.008 911.481H966.686C969.995 911.481 973.169 910.166 975.509 907.826C977.849 905.486 979.164 902.312 979.164 899.002V798.99C978.891 768.571 982.732 738.255 990.582 708.866C992.312 702.428 993.162 695.785 993.108 689.119V689.119Z" fill="#504746"/>
<path d="M817.509 731.607H548.385V911.387H817.509V731.607Z" fill="#E6E6E6"/>
<path d="M381.833 440.586H630.149C637.511 440.553 644.807 441.974 651.618 444.769C658.43 447.564 664.622 451.676 669.839 456.87C675.057 462.065 679.197 468.238 682.022 475.037C684.847 481.836 686.301 489.126 686.301 496.488V772.256H325.962V496.488C325.962 481.667 331.847 467.453 342.324 456.97C352.801 446.487 367.012 440.594 381.833 440.586V440.586Z" fill="#E0E0E0"/>
<path d="M449.527 440.585H703.333C710.318 440.585 717.235 441.961 723.688 444.634C730.141 447.307 736.004 451.225 740.943 456.164C745.882 461.103 749.8 466.966 752.473 473.419C755.146 479.872 756.522 486.789 756.522 493.774V772.225H396.183V493.805C396.178 486.804 397.556 479.872 400.237 473.405C402.918 466.938 406.849 461.064 411.805 456.119C416.761 451.175 422.644 447.258 429.118 444.592C435.591 441.926 442.526 440.565 449.527 440.585V440.585Z" fill="#504746"/>
<path d="M565.98 715.199H814.046C818.349 715.199 822.475 716.908 825.517 719.95C828.559 722.993 830.268 727.119 830.268 731.421V772.193C830.268 776.496 828.559 780.622 825.517 783.664C822.475 786.706 818.349 788.415 814.046 788.415H565.98C564.697 788.415 563.468 787.906 562.561 786.999C561.654 786.092 561.145 784.862 561.145 783.58V720.034C561.145 718.752 561.654 717.522 562.561 716.615C563.468 715.709 564.697 715.199 565.98 715.199V715.199Z" fill="#E0E0E0"/>
<path d="M299.477 615.28C297.761 615.28 296.045 615.28 294.298 615.436C283.428 616.204 272.863 619.367 263.359 624.698C253.856 630.029 245.649 637.397 239.328 646.273C233.007 655.149 228.728 665.314 226.798 676.039C224.868 686.763 225.334 697.782 228.164 708.305C236.223 739.728 240.114 772.074 239.737 804.512V898.972C239.737 902.282 241.052 905.455 243.392 907.796C245.732 910.136 248.906 911.45 252.215 911.45H552.035V615.28H299.477Z" fill="#E6E6E6"/>
<path d="M625.75 689.119C625.638 670.019 618.132 651.705 604.807 638.019C591.483 624.334 573.375 616.342 554.284 615.721C535.194 615.099 516.605 621.896 502.418 634.686C488.231 647.475 479.55 665.263 478.196 684.315C477.677 692.398 478.478 700.511 480.566 708.336C488.651 739.754 492.553 772.103 492.171 804.543V899.002C492.171 902.312 493.486 905.486 495.826 907.826C498.166 910.166 501.34 911.481 504.649 911.481H599.328C602.637 911.481 605.811 910.166 608.151 907.826C610.491 905.486 611.806 902.312 611.806 899.002V798.99C611.533 768.571 615.373 738.255 623.223 708.866C624.954 702.428 625.804 695.785 625.75 689.119V689.119Z" fill="#504746"/>
<path d="M914.028 920.372H304.686C302.304 920.372 300.018 919.425 298.334 917.741C296.649 916.056 295.702 913.77 295.702 911.388H922.981C922.981 913.765 922.039 916.046 920.361 917.73C918.682 919.414 916.405 920.364 914.028 920.372V920.372Z" fill="#E0E0E0"/>
<path d="M447.156 43.9346H267.876V229.735H447.156V43.9346Z" fill="#E0E0E0"/>
<path d="M457.388 43.9346H282.6V229.735H457.388V43.9346Z" fill="#504746"/>
<path d="M442.726 215.073V58.5654L297.231 58.5654V215.073H442.726Z" fill="#FAFAFA"/>
<path d="M369.979 97.2783L330.204 166.189H409.784L369.979 97.2783Z" fill="#504746"/>
<path d="M686.145 122.173H506.864V307.973H686.145V122.173Z" fill="#E0E0E0"/>
<path d="M696.346 122.173H521.557V307.973H696.346V122.173Z" fill="#504746"/>
<path d="M681.684 293.343V136.835H536.188V293.343H681.684Z" fill="#FAFAFA"/>
<path d="M626.78 242.993L644.031 213.107C645.829 209.979 646.774 206.434 646.771 202.826C646.768 199.218 645.817 195.674 644.013 192.549C642.209 189.425 639.615 186.829 636.492 185.022C633.369 183.215 629.826 182.261 626.218 182.255H591.685C588.076 182.257 584.531 183.21 581.407 185.016C578.282 186.823 575.689 189.42 573.887 192.547C572.084 195.674 571.137 199.22 571.14 202.83C571.143 206.439 572.096 209.983 573.903 213.107L591.155 242.993C592.958 246.122 595.553 248.721 598.68 250.528C601.807 252.336 605.355 253.287 608.967 253.287C612.579 253.287 616.127 252.336 619.254 250.528C622.381 248.721 624.977 246.122 626.78 242.993Z" fill="#504746"/>
<path d="M1101.42 477.521H1052.41V905.554H1101.42V477.521Z" fill="#E6E6E6"/>
<path d="M1336.76 905.554H1065.33V920.309H1336.76V905.554Z" fill="#E6E6E6"/>
<path d="M1101.39 905.585H1349.67V477.552L1101.39 477.552V905.585Z" fill="#504746"/>
<path d="M1127.87 776.842H1323.22V700.413H1127.87V776.842Z" fill="#E6E6E6"/>
<path d="M1127.87 876.886H1323.22V800.457H1127.87V876.886Z" fill="#E6E6E6"/>
<path d="M1253.81 733.386H1197.25C1194.51 733.386 1192.29 735.606 1192.29 738.346V738.907C1192.29 741.647 1194.51 743.867 1197.25 743.867H1253.81C1256.55 743.867 1258.77 741.647 1258.77 738.907V738.346C1258.77 735.606 1256.55 733.386 1253.81 733.386Z" fill="#504746"/>
<path d="M1253.81 833.43H1197.25C1194.51 833.43 1192.29 835.65 1192.29 838.39V838.951C1192.29 841.691 1194.51 843.911 1197.25 843.911H1253.81C1256.55 843.911 1258.77 841.691 1258.77 838.951V838.39C1258.77 835.65 1256.55 833.43 1253.81 833.43Z" fill="#504746"/>
<path d="M1127.87 577.564H1323.22V501.136H1127.87V577.564Z" fill="#E6E6E6"/>
<path d="M1127.87 676.829H1323.22V600.4H1127.87V676.829Z" fill="#E6E6E6"/>
<path d="M1253.81 534.109H1197.25C1194.51 534.109 1192.29 536.33 1192.29 539.069V539.631C1192.29 542.37 1194.51 544.591 1197.25 544.591H1253.81C1256.55 544.591 1258.77 542.37 1258.77 539.631V539.069C1258.77 536.33 1256.55 534.109 1253.81 534.109Z" fill="#504746"/>
<path d="M1253.81 633.342H1197.25C1194.51 633.342 1192.29 635.562 1192.29 638.302V638.863C1192.29 641.603 1194.51 643.824 1197.25 643.824H1253.81C1256.55 643.824 1258.77 641.603 1258.77 638.863V638.302C1258.77 635.562 1256.55 633.342 1253.81 633.342Z" fill="#504746"/>
<path d="M1285.78 353.861H1239.77C1239.77 353.861 1247.76 381.438 1247.76 397.535C1247.76 413.632 1212.76 477.395 1262.79 477.395C1312.83 477.395 1277.8 413.788 1277.8 397.535C1277.8 381.282 1285.78 353.861 1285.78 353.861Z" fill="#504746"/>
<path d="M1166.03 390.922C1165.99 395.234 1164.69 399.44 1162.27 403.011C1159.85 406.581 1156.43 409.356 1152.44 410.985C1148.44 412.613 1144.06 413.024 1139.83 412.164C1135.61 411.304 1131.73 409.212 1128.69 406.151C1125.65 403.091 1123.59 399.2 1122.76 394.969C1121.93 390.737 1122.37 386.354 1124.03 382.373C1125.69 378.392 1128.49 374.991 1132.07 372.598C1135.66 370.206 1139.88 368.929 1144.19 368.929C1149.99 368.97 1155.55 371.305 1159.64 375.425C1163.73 379.545 1166.03 385.116 1166.03 390.922V390.922Z" fill="#504746"/>
<path d="M1203.68 401.404C1203.68 405.754 1202.39 410.006 1199.97 413.623C1197.55 417.239 1194.12 420.058 1190.1 421.723C1186.08 423.387 1181.66 423.823 1177.39 422.974C1173.13 422.126 1169.21 420.031 1166.13 416.955C1163.06 413.879 1160.96 409.961 1160.11 405.695C1159.27 401.428 1159.7 397.006 1161.37 392.988C1163.03 388.969 1165.85 385.534 1169.47 383.118C1173.08 380.701 1177.34 379.411 1181.69 379.411C1187.52 379.411 1193.11 381.728 1197.24 385.853C1201.36 389.977 1203.68 395.571 1203.68 401.404V401.404Z" fill="#504746"/>
<path d="M1235.84 392.919C1235.84 397.268 1234.55 401.52 1232.13 405.137C1229.72 408.754 1226.28 411.573 1222.26 413.237C1218.25 414.902 1213.82 415.337 1209.56 414.489C1205.29 413.64 1201.37 411.546 1198.3 408.47C1195.22 405.394 1193.13 401.475 1192.28 397.209C1191.43 392.943 1191.86 388.521 1193.53 384.502C1195.19 380.484 1198.01 377.049 1201.63 374.632C1205.25 372.216 1209.5 370.926 1213.85 370.926C1219.68 370.926 1225.27 373.243 1229.4 377.367C1233.52 381.492 1235.84 387.086 1235.84 392.919Z" fill="#504746"/>
<path d="M1104.66 401.81V426.766C1104.66 454.592 1131.59 477.365 1164.47 477.365H1194.16C1227.07 477.365 1254 454.592 1254 426.766V401.81H1104.66Z" fill="#E6E6E6"/>
<path d="M1008.74 273.346C992.166 273.346 976.272 266.763 964.554 255.045C952.836 243.327 946.253 227.433 946.253 210.862C946.253 194.29 952.836 178.396 964.554 166.678C976.272 154.96 992.166 148.377 1008.74 148.377H1016.41V273.346H1008.74Z" fill="#E0E0E0"/>
<path d="M1077.28 225.161C1085.14 191.56 1064.28 157.946 1030.68 150.084C997.074 142.221 963.461 163.087 955.598 196.688C947.736 230.29 968.601 263.903 1002.2 271.766C1035.8 279.628 1069.42 258.763 1077.28 225.161Z" fill="#504746"/>
<path d="M1019.22 218.691C1017.15 218.691 1015.17 217.87 1013.7 216.407C1012.24 214.944 1011.42 212.961 1011.42 210.892C1011.42 208.824 1012.24 206.84 1013.7 205.378C1015.17 203.915 1017.15 203.094 1019.22 203.094C1037.1 203.077 1054.25 195.967 1066.9 183.323C1079.55 170.679 1086.67 153.534 1086.69 135.649V31.9239C1086.69 29.8555 1087.52 27.8718 1088.98 26.4092C1090.44 24.9467 1092.43 24.125 1094.49 24.125C1096.56 24.125 1098.55 24.9467 1100.01 26.4092C1101.47 27.8718 1102.29 29.8555 1102.29 31.9239V135.649C1102.26 157.668 1093.5 178.776 1077.92 194.343C1062.35 209.91 1041.24 218.667 1019.22 218.691V218.691Z" fill="#E0E0E0"/>
<path d="M1168.24 135.431H1020.75L1037.22 0.291992H1151.77L1168.24 135.431Z" fill="#504746"/>
<path d="M779.887 1061.22C1113.94 1061.22 1384.74 1045.41 1384.74 1025.91C1384.74 1006.4 1113.94 990.593 779.887 990.593C445.838 990.593 175.038 1006.4 175.038 1025.91C175.038 1045.41 445.838 1061.22 779.887 1061.22Z" fill="#F5F5F5"/>
<path d="M1251.84 746.551L1246.51 705.092C1245.71 698.922 1242.69 693.254 1238.02 689.145C1233.35 685.035 1227.34 682.765 1221.12 682.756H1082.92C1076.7 682.762 1070.69 680.5 1066.02 676.395C1061.34 672.289 1058.32 666.621 1057.53 660.451L1028.86 438.09C1028.39 434.484 1028.69 430.819 1029.75 427.34C1030.81 423.861 1032.6 420.648 1035 417.916C1037.4 415.185 1040.36 412.997 1043.67 411.5C1046.99 410.003 1050.58 409.23 1054.22 409.234H1179.19C1182.83 409.234 1186.42 408.457 1189.74 406.956C1193.05 405.455 1196.01 403.265 1198.41 400.531C1200.81 397.797 1202.6 394.582 1203.66 391.102C1204.72 387.621 1205.02 383.955 1204.55 380.347L1199.25 338.857C1198.45 332.687 1195.43 327.019 1190.76 322.914C1186.09 318.808 1180.08 316.547 1173.86 316.552H1035.69C1029.47 316.549 1023.46 314.28 1018.8 310.169C1014.13 306.058 1011.12 300.387 1010.33 294.216L983.75 88.3261C982.954 82.1533 979.937 76.4816 975.264 72.371C970.591 68.2603 964.581 65.9921 958.357 65.9901H917.303C913.664 65.9913 910.067 66.768 906.751 68.2685C903.436 69.769 900.478 71.9589 898.076 74.6923C895.673 77.4256 893.88 80.6396 892.817 84.1201C891.754 87.6006 891.445 91.2678 891.91 94.8771L916.867 287.603C917.332 291.212 917.023 294.879 915.96 298.36C914.897 301.84 913.104 305.054 910.701 307.788C908.299 310.521 905.341 312.711 902.026 314.212C898.71 315.712 895.113 316.489 891.474 316.49H556.84C550.619 316.487 544.613 314.218 539.945 310.107C535.277 305.995 532.267 300.324 531.478 294.154L504.899 88.2637C504.11 82.0935 501.1 76.4223 496.432 72.3111C491.764 68.1999 485.757 65.9306 479.537 65.9277H438.484C434.845 65.9289 431.247 66.7056 427.932 68.2061C424.616 69.7066 421.659 71.8965 419.256 74.6299C416.853 77.3632 415.061 80.5772 413.997 84.0577C412.934 87.5383 412.625 91.2054 413.091 94.8147L438.047 287.541C438.513 291.15 438.203 294.817 437.14 298.298C436.077 301.778 434.285 304.992 431.882 307.725C429.479 310.459 426.521 312.649 423.206 314.149C419.89 315.65 416.293 316.426 412.654 316.428H287.591C283.953 316.424 280.357 317.197 277.041 318.694C273.726 320.191 270.768 322.378 268.364 325.109C265.961 327.84 264.168 331.052 263.105 334.531C262.041 338.01 261.732 341.675 262.198 345.283L267.564 386.742C268.353 392.918 271.368 398.593 276.043 402.705C280.717 406.817 286.731 409.083 292.957 409.078H431.122C437.343 409.072 443.353 411.334 448.027 415.44C452.701 419.545 455.718 425.213 456.515 431.383L485.215 653.744C485.68 657.352 485.371 661.018 484.308 664.497C483.245 667.976 481.452 671.188 479.048 673.919C476.645 676.65 473.687 678.837 470.372 680.334C467.056 681.831 463.459 682.604 459.822 682.6H334.852C331.213 682.601 327.616 683.378 324.3 684.879C320.985 686.379 318.027 688.569 315.625 691.302C313.222 694.036 311.429 697.25 310.366 700.73C309.303 704.211 308.994 707.878 309.459 711.487L314.825 752.946C315.614 759.116 318.624 764.787 323.292 768.899C327.96 773.01 333.966 775.279 340.187 775.282H478.383C484.604 775.276 490.614 777.538 495.288 781.643C499.962 785.749 502.979 791.417 503.776 797.587L530.323 1003.48C531.119 1009.65 534.136 1015.32 538.809 1019.43C543.482 1023.54 549.493 1025.81 555.716 1025.81H596.77C600.409 1025.81 604.006 1025.04 607.322 1023.53C610.637 1022.03 613.595 1019.84 615.998 1017.11C618.4 1014.38 620.193 1011.16 621.256 1007.68C622.319 1004.2 622.628 1000.54 622.163 996.926L597.207 804.2C596.778 800.606 597.118 796.963 598.202 793.51C599.287 790.057 601.091 786.873 603.497 784.169C605.903 781.465 608.856 779.303 612.159 777.825C615.463 776.347 619.043 775.586 622.662 775.594H957.202C963.411 775.568 969.416 777.801 974.1 781.876C978.784 785.951 981.825 791.591 982.658 797.743L1009.21 1003.63C1010 1009.81 1013.02 1015.48 1017.69 1019.59C1022.36 1023.7 1028.37 1025.97 1034.6 1025.97H1075.65C1079.29 1025.97 1082.89 1025.19 1086.2 1023.69C1089.51 1022.19 1092.47 1020 1094.87 1017.27C1097.27 1014.53 1099.06 1011.32 1100.12 1007.84C1101.18 1004.36 1101.48 1000.69 1101.01 997.082L1076.06 804.356C1075.59 800.748 1075.9 797.083 1076.96 793.604C1078.03 790.125 1079.82 786.913 1082.22 784.182C1084.63 781.451 1087.58 779.264 1090.9 777.767C1094.22 776.27 1097.81 775.497 1101.45 775.5H1226.42C1230.07 775.505 1233.67 774.73 1237 773.228C1240.32 771.725 1243.29 769.53 1245.69 766.789C1248.1 764.048 1249.9 760.825 1250.96 757.335C1252.02 753.844 1252.32 750.168 1251.84 746.551V746.551ZM578.708 660.451L550.039 438.09C549.573 434.485 549.882 430.822 550.943 427.345C552.005 423.868 553.795 420.658 556.195 417.927C558.595 415.197 561.549 413.009 564.861 411.51C568.172 410.011 571.766 409.235 575.401 409.234H909.941C916.162 409.228 922.172 411.49 926.846 415.596C931.52 419.701 934.538 425.369 935.334 431.539L963.941 653.932C964.406 657.539 964.097 661.205 963.034 664.684C961.971 668.163 960.178 671.375 957.774 674.106C955.371 676.837 952.413 679.024 949.098 680.521C945.782 682.018 942.185 682.791 938.548 682.787H604.101C597.877 682.785 591.867 680.517 587.193 676.407C582.52 672.296 579.504 666.624 578.708 660.451V660.451Z" fill="#B89685"/>
<path opacity="0.4" d="M1251.84 746.551L1246.51 705.092C1245.71 698.922 1242.69 693.254 1238.02 689.145C1233.35 685.035 1227.34 682.765 1221.12 682.756H1082.92C1076.7 682.762 1070.69 680.5 1066.02 676.395C1061.34 672.289 1058.32 666.621 1057.53 660.451L1028.86 438.09C1028.39 434.484 1028.69 430.819 1029.75 427.34C1030.81 423.861 1032.6 420.648 1035 417.916C1037.4 415.185 1040.36 412.997 1043.67 411.5C1046.99 410.003 1050.58 409.23 1054.22 409.234H1179.19C1182.83 409.234 1186.42 408.457 1189.74 406.956C1193.05 405.455 1196.01 403.265 1198.41 400.531C1200.81 397.797 1202.6 394.582 1203.66 391.102C1204.72 387.621 1205.02 383.955 1204.55 380.347L1199.25 338.857C1198.45 332.687 1195.43 327.019 1190.76 322.914C1186.09 318.808 1180.08 316.547 1173.86 316.552H1035.69C1029.47 316.549 1023.46 314.28 1018.8 310.169C1014.13 306.058 1011.12 300.387 1010.33 294.216L983.75 88.3261C982.954 82.1533 979.937 76.4816 975.264 72.371C970.591 68.2603 964.581 65.9921 958.357 65.9901H917.303C913.664 65.9913 910.067 66.768 906.751 68.2685C903.436 69.769 900.478 71.9589 898.076 74.6923C895.673 77.4256 893.88 80.6396 892.817 84.1201C891.754 87.6006 891.445 91.2678 891.91 94.8771L916.867 287.603C917.332 291.212 917.023 294.879 915.96 298.36C914.897 301.84 913.104 305.054 910.701 307.788C908.299 310.521 905.341 312.711 902.026 314.212C898.71 315.712 895.113 316.489 891.474 316.49H556.84C550.619 316.487 544.613 314.218 539.945 310.107C535.277 305.995 532.267 300.324 531.478 294.154L504.899 88.2637C504.11 82.0935 501.1 76.4223 496.432 72.3111C491.764 68.1999 485.757 65.9306 479.537 65.9277H438.484C434.845 65.9289 431.247 66.7056 427.932 68.2061C424.616 69.7066 421.659 71.8965 419.256 74.6299C416.853 77.3632 415.061 80.5772 413.997 84.0577C412.934 87.5383 412.625 91.2054 413.091 94.8147L438.047 287.541C438.513 291.15 438.203 294.817 437.14 298.298C436.077 301.778 434.285 304.992 431.882 307.725C429.479 310.459 426.521 312.649 423.206 314.149C419.89 315.65 416.293 316.426 412.654 316.428H287.591C283.953 316.424 280.357 317.197 277.041 318.694C273.726 320.191 270.768 322.378 268.364 325.109C265.961 327.84 264.168 331.052 263.105 334.531C262.041 338.01 261.732 341.675 262.198 345.283L267.564 386.742C268.353 392.918 271.368 398.593 276.043 402.705C280.717 406.817 286.731 409.083 292.957 409.078H431.122C437.343 409.072 443.353 411.334 448.027 415.44C452.701 419.545 455.718 425.213 456.515 431.383L485.215 653.744C485.68 657.352 485.371 661.018 484.308 664.497C483.245 667.976 481.452 671.188 479.048 673.919C476.645 676.65 473.687 678.837 470.372 680.334C467.056 681.831 463.459 682.604 459.822 682.6H334.852C331.213 682.601 327.616 683.378 324.3 684.879C320.985 686.379 318.027 688.569 315.625 691.302C313.222 694.036 311.429 697.25 310.366 700.73C309.303 704.211 308.994 707.878 309.459 711.487L314.825 752.946C315.614 759.116 318.624 764.787 323.292 768.899C327.96 773.01 333.966 775.279 340.187 775.282H478.383C484.604 775.276 490.614 777.538 495.288 781.643C499.962 785.749 502.979 791.417 503.776 797.587L530.323 1003.48C531.119 1009.65 534.136 1015.32 538.809 1019.43C543.482 1023.54 549.493 1025.81 555.716 1025.81H596.77C600.409 1025.81 604.006 1025.04 607.322 1023.53C610.637 1022.03 613.595 1019.84 615.998 1017.11C618.4 1014.38 620.193 1011.16 621.256 1007.68C622.319 1004.2 622.628 1000.54 622.163 996.926L597.207 804.2C596.778 800.606 597.118 796.963 598.202 793.51C599.287 790.057 601.091 786.873 603.497 784.169C605.903 781.465 608.856 779.303 612.159 777.825C615.463 776.347 619.043 775.586 622.662 775.594H957.202C963.411 775.568 969.416 777.801 974.1 781.876C978.784 785.951 981.825 791.591 982.658 797.743L1009.21 1003.63C1010 1009.81 1013.02 1015.48 1017.69 1019.59C1022.36 1023.7 1028.37 1025.97 1034.6 1025.97H1075.65C1079.29 1025.97 1082.89 1025.19 1086.2 1023.69C1089.51 1022.19 1092.47 1020 1094.87 1017.27C1097.27 1014.53 1099.06 1011.32 1100.12 1007.84C1101.18 1004.36 1101.48 1000.69 1101.01 997.082L1076.06 804.356C1075.59 800.748 1075.9 797.083 1076.96 793.604C1078.03 790.125 1079.82 786.913 1082.22 784.182C1084.63 781.451 1087.58 779.264 1090.9 777.767C1094.22 776.27 1097.81 775.497 1101.45 775.5H1226.42C1230.07 775.505 1233.67 774.73 1237 773.228C1240.32 771.725 1243.29 769.53 1245.69 766.789C1248.1 764.048 1249.9 760.825 1250.96 757.335C1252.02 753.844 1252.32 750.168 1251.84 746.551V746.551ZM578.708 660.451L550.039 438.09C549.573 434.485 549.882 430.822 550.943 427.345C552.005 423.868 553.795 420.658 556.195 417.927C558.595 415.197 561.549 413.009 564.861 411.51C568.172 410.011 571.766 409.235 575.401 409.234H909.941C916.162 409.228 922.172 411.49 926.846 415.596C931.52 419.701 934.538 425.369 935.334 431.539L963.941 653.932C964.406 657.539 964.097 661.205 963.034 664.684C961.971 668.163 960.178 671.375 957.774 674.106C955.371 676.837 952.413 679.024 949.098 680.521C945.782 682.018 942.185 682.791 938.548 682.787H604.101C597.877 682.785 591.867 680.517 587.193 676.407C582.52 672.296 579.504 666.624 578.708 660.451V660.451Z" fill="black"/>
<path d="M662.748 896.352L659.629 872.643L662.748 872.238L665.868 895.947L662.748 896.352ZM1100.42 577.534L1089.44 492.526L1092.56 492.152L1103.51 577.129L1100.42 577.534ZM581.577 267.326L577.117 233.198L580.236 232.793L584.666 267.108L581.577 267.326ZM574.465 212.204L566.978 154.274L570.098 153.868L577.553 211.798L574.465 212.204Z" fill="#B89685"/>
<path opacity="0.3" d="M662.748 896.352L659.629 872.643L662.748 872.238L665.868 895.947L662.748 896.352ZM1100.42 577.534L1089.44 492.526L1092.56 492.152L1103.51 577.129L1100.42 577.534ZM581.577 267.326L577.117 233.198L580.236 232.793L584.666 267.108L581.577 267.326ZM574.465 212.204L566.978 154.274L570.098 153.868L577.553 211.798L574.465 212.204Z" fill="black"/>
<path d="M1297.73 746.551L1292.37 705.092C1291.57 698.92 1288.55 693.248 1283.88 689.137C1279.21 685.027 1273.2 682.758 1266.97 682.756H1128.78C1122.56 682.754 1116.56 680.489 1111.89 676.385C1107.22 672.28 1104.21 666.616 1103.42 660.452L1074.72 438.09C1074.26 434.483 1074.57 430.819 1075.63 427.343C1076.7 423.866 1078.49 420.656 1080.89 417.926C1083.3 415.196 1086.25 413.009 1089.57 411.511C1092.88 410.012 1096.47 409.236 1100.11 409.234H1225.08C1228.72 409.233 1232.31 408.456 1235.63 406.956C1238.95 405.455 1241.9 403.265 1244.31 400.532C1246.71 397.799 1248.5 394.585 1249.56 391.104C1250.63 387.624 1250.94 383.957 1250.47 380.347L1244.95 338.857C1244.16 332.69 1241.15 327.022 1236.48 322.916C1231.81 318.81 1225.81 316.548 1219.59 316.552H1081.39C1075.17 316.55 1069.16 314.282 1064.48 310.172C1059.81 306.061 1056.79 300.389 1056 294.216L1029.45 88.3262C1028.66 82.1534 1025.64 76.4817 1020.97 72.3711C1016.29 68.2604 1010.28 65.9922 1004.06 65.9902H963.005C959.366 65.9914 955.768 66.7681 952.453 68.2686C949.137 69.7692 946.18 71.959 943.777 74.6924C941.374 77.4257 939.582 80.6397 938.519 84.1202C937.455 87.6008 937.146 91.2679 937.612 94.8773L962.568 287.603C963.034 291.212 962.724 294.88 961.661 298.36C960.598 301.841 958.806 305.055 956.403 307.788C954 310.521 951.043 312.711 947.727 314.212C944.412 315.712 940.814 316.489 937.175 316.49H602.572C596.352 316.506 590.338 314.258 585.654 310.165C580.97 306.072 577.935 300.414 577.117 294.248L550.569 88.3574C549.773 82.1846 546.757 76.5129 542.084 72.4023C537.41 68.2917 531.4 66.0234 525.176 66.0214H484.185C480.547 66.022 476.951 66.7986 473.637 68.2994C470.323 69.8002 467.367 71.9907 464.966 74.7247C462.566 77.4587 460.776 80.6732 459.717 84.1538C458.658 87.6343 458.353 91.3008 458.823 94.9085L483.78 287.634C484.245 291.244 483.936 294.911 482.873 298.391C481.81 301.872 480.017 305.086 477.615 307.819C475.212 310.552 472.254 312.742 468.939 314.243C465.623 315.743 462.026 316.52 458.387 316.521H333.324C329.686 316.518 326.089 317.291 322.774 318.788C319.458 320.285 316.5 322.472 314.097 325.202C311.694 327.933 309.901 331.146 308.837 334.625C307.774 338.103 307.465 341.769 307.931 345.377L313.265 386.836C314.061 393.009 317.078 398.68 321.751 402.791C326.424 406.902 332.434 409.17 338.658 409.172H476.854C483.075 409.166 489.085 411.428 493.759 415.533C498.433 419.639 501.451 425.307 502.248 431.477L530.916 653.932C531.387 657.538 531.082 661.203 530.023 664.682C528.963 668.161 527.173 671.374 524.772 674.105C522.371 676.837 519.415 679.024 516.101 680.522C512.787 682.019 509.191 682.791 505.554 682.788H380.585C376.947 682.788 373.351 683.565 370.037 685.065C366.722 686.566 363.766 688.757 361.366 691.491C358.966 694.225 357.176 697.439 356.117 700.92C355.058 704.4 354.753 708.067 355.223 711.675L360.558 753.133C361.354 759.306 364.37 764.978 369.043 769.088C373.717 773.199 379.727 775.467 385.951 775.469H524.084C530.302 775.465 536.308 777.727 540.977 781.833C545.645 785.939 548.657 791.607 549.446 797.774L576.025 1003.66C576.821 1009.84 579.837 1015.51 584.511 1019.62C589.184 1023.73 595.194 1026 601.418 1026H642.627C646.266 1026 649.864 1025.22 653.179 1023.72C656.495 1022.22 659.452 1020.03 661.855 1017.3C664.258 1014.56 666.05 1011.35 667.114 1007.87C668.177 1004.39 668.486 1000.72 668.02 997.113L643.064 804.388C642.598 800.78 642.907 797.114 643.971 793.635C645.034 790.156 646.827 786.944 649.23 784.213C651.633 781.482 654.592 779.295 657.907 777.798C661.223 776.301 664.819 775.528 668.457 775.532H1002.94C1009.15 775.534 1015.15 777.799 1019.82 781.903C1024.49 786.008 1027.5 791.672 1028.3 797.837L1054.88 1003.73C1055.66 1009.9 1058.67 1015.57 1063.34 1019.68C1068.01 1023.79 1074.02 1026.06 1080.24 1026.06H1121.29C1124.93 1026.06 1128.53 1025.28 1131.84 1023.78C1135.16 1022.28 1138.12 1020.09 1140.52 1017.36C1142.92 1014.63 1144.71 1011.41 1145.78 1007.93C1146.84 1004.45 1147.15 1000.79 1146.68 997.176L1121.73 804.45C1121.26 800.845 1121.57 797.182 1122.63 793.705C1123.69 790.228 1125.48 787.017 1127.88 784.287C1130.28 781.557 1133.24 779.369 1136.55 777.87C1139.86 776.371 1143.45 775.595 1147.09 775.594H1272.09C1275.77 775.632 1279.41 774.878 1282.76 773.384C1286.12 771.89 1289.12 769.69 1291.55 766.935C1293.98 764.18 1295.79 760.933 1296.86 757.416C1297.93 753.899 1298.23 750.193 1297.73 746.551V746.551ZM624.596 660.452L595.834 438.09C595.373 434.483 595.686 430.819 596.751 427.343C597.817 423.866 599.61 420.656 602.012 417.926C604.414 415.196 607.37 413.009 610.684 411.511C613.997 410.012 617.591 409.236 621.227 409.234H955.674C961.893 409.235 967.899 411.499 972.572 415.603C977.245 419.708 980.264 425.372 981.067 431.539L1009.74 653.932C1010.2 657.537 1009.89 661.2 1008.83 664.677C1007.77 668.154 1005.98 671.364 1003.58 674.095C1001.18 676.825 998.226 679.013 994.914 680.512C991.602 682.011 988.009 682.786 984.374 682.788H649.833C643.608 682.792 637.594 680.526 632.919 676.414C628.245 672.303 625.23 666.627 624.44 660.452H624.596Z" fill="#B89685"/>
<path opacity="0.3" d="M1297.73 746.551L1292.37 705.092C1291.57 698.92 1288.55 693.248 1283.88 689.137C1279.21 685.027 1273.2 682.758 1266.97 682.756H1128.78C1122.56 682.754 1116.56 680.489 1111.89 676.385C1107.22 672.28 1104.21 666.616 1103.42 660.452L1074.72 438.09C1074.26 434.483 1074.57 430.819 1075.63 427.343C1076.7 423.866 1078.49 420.656 1080.89 417.926C1083.3 415.196 1086.25 413.009 1089.57 411.511C1092.88 410.012 1096.47 409.236 1100.11 409.234H1225.08C1228.72 409.233 1232.31 408.456 1235.63 406.956C1238.95 405.455 1241.9 403.265 1244.31 400.532C1246.71 397.799 1248.5 394.585 1249.56 391.104C1250.63 387.624 1250.94 383.957 1250.47 380.347L1244.95 338.857C1244.16 332.69 1241.15 327.022 1236.48 322.916C1231.81 318.81 1225.81 316.548 1219.59 316.552H1081.39C1075.17 316.55 1069.16 314.282 1064.48 310.172C1059.81 306.061 1056.79 300.389 1056 294.216L1029.45 88.3262C1028.66 82.1534 1025.64 76.4817 1020.97 72.3711C1016.29 68.2604 1010.28 65.9922 1004.06 65.9902H963.005C959.366 65.9914 955.768 66.7681 952.453 68.2686C949.137 69.7692 946.18 71.959 943.777 74.6924C941.374 77.4257 939.582 80.6397 938.519 84.1202C937.455 87.6008 937.146 91.2679 937.612 94.8773L962.568 287.603C963.034 291.212 962.724 294.88 961.661 298.36C960.598 301.841 958.806 305.055 956.403 307.788C954 310.521 951.043 312.711 947.727 314.212C944.412 315.712 940.814 316.489 937.175 316.49H602.572C596.352 316.506 590.338 314.258 585.654 310.165C580.97 306.072 577.935 300.414 577.117 294.248L550.569 88.3574C549.773 82.1846 546.757 76.5129 542.084 72.4023C537.41 68.2917 531.4 66.0234 525.176 66.0214H484.185C480.547 66.022 476.951 66.7986 473.637 68.2994C470.323 69.8002 467.367 71.9907 464.966 74.7247C462.566 77.4587 460.776 80.6732 459.717 84.1538C458.658 87.6343 458.353 91.3008 458.823 94.9085L483.78 287.634C484.245 291.244 483.936 294.911 482.873 298.391C481.81 301.872 480.017 305.086 477.615 307.819C475.212 310.552 472.254 312.742 468.939 314.243C465.623 315.743 462.026 316.52 458.387 316.521H333.324C329.686 316.518 326.089 317.291 322.774 318.788C319.458 320.285 316.5 322.472 314.097 325.202C311.694 327.933 309.901 331.146 308.837 334.625C307.774 338.103 307.465 341.769 307.931 345.377L313.265 386.836C314.061 393.009 317.078 398.68 321.751 402.791C326.424 406.902 332.434 409.17 338.658 409.172H476.854C483.075 409.166 489.085 411.428 493.759 415.533C498.433 419.639 501.451 425.307 502.248 431.477L530.916 653.932C531.387 657.538 531.082 661.203 530.023 664.682C528.963 668.161 527.173 671.374 524.772 674.105C522.371 676.837 519.415 679.024 516.101 680.522C512.787 682.019 509.191 682.791 505.554 682.788H380.585C376.947 682.788 373.351 683.565 370.037 685.065C366.722 686.566 363.766 688.757 361.366 691.491C358.966 694.225 357.176 697.439 356.117 700.92C355.058 704.4 354.753 708.067 355.223 711.675L360.558 753.133C361.354 759.306 364.37 764.978 369.043 769.088C373.717 773.199 379.727 775.467 385.951 775.469H524.084C530.302 775.465 536.308 777.727 540.977 781.833C545.645 785.939 548.657 791.607 549.446 797.774L576.025 1003.66C576.821 1009.84 579.837 1015.51 584.511 1019.62C589.184 1023.73 595.194 1026 601.418 1026H642.627C646.266 1026 649.864 1025.22 653.179 1023.72C656.495 1022.22 659.452 1020.03 661.855 1017.3C664.258 1014.56 666.05 1011.35 667.114 1007.87C668.177 1004.39 668.486 1000.72 668.02 997.113L643.064 804.388C642.598 800.78 642.907 797.114 643.971 793.635C645.034 790.156 646.827 786.944 649.23 784.213C651.633 781.482 654.592 779.295 657.907 777.798C661.223 776.301 664.819 775.528 668.457 775.532H1002.94C1009.15 775.534 1015.15 777.799 1019.82 781.903C1024.49 786.008 1027.5 791.672 1028.3 797.837L1054.88 1003.73C1055.66 1009.9 1058.67 1015.57 1063.34 1019.68C1068.01 1023.79 1074.02 1026.06 1080.24 1026.06H1121.29C1124.93 1026.06 1128.53 1025.28 1131.84 1023.78C1135.16 1022.28 1138.12 1020.09 1140.52 1017.36C1142.92 1014.63 1144.71 1011.41 1145.78 1007.93C1146.84 1004.45 1147.15 1000.79 1146.68 997.176L1121.73 804.45C1121.26 800.845 1121.57 797.182 1122.63 793.705C1123.69 790.228 1125.48 787.017 1127.88 784.287C1130.28 781.557 1133.24 779.369 1136.55 777.87C1139.86 776.371 1143.45 775.595 1147.09 775.594H1272.09C1275.77 775.632 1279.41 774.878 1282.76 773.384C1286.12 771.89 1289.12 769.69 1291.55 766.935C1293.98 764.18 1295.79 760.933 1296.86 757.416C1297.93 753.899 1298.23 750.193 1297.73 746.551V746.551ZM624.596 660.452L595.834 438.09C595.373 434.483 595.686 430.819 596.751 427.343C597.817 423.866 599.61 420.656 602.012 417.926C604.414 415.196 607.37 413.009 610.684 411.511C613.997 410.012 617.591 409.236 621.227 409.234H955.674C961.893 409.235 967.899 411.499 972.572 415.603C977.245 419.708 980.264 425.372 981.067 431.539L1009.74 653.932C1010.2 657.537 1009.89 661.2 1008.83 664.677C1007.77 668.154 1005.98 671.364 1003.58 674.095C1001.18 676.825 998.226 679.013 994.914 680.512C991.602 682.011 988.009 682.786 984.374 682.788H649.833C643.608 682.792 637.594 680.526 632.919 676.414C628.245 672.303 625.23 666.627 624.44 660.452H624.596Z" fill="black"/>
<path d="M1121.29 1016.92H1080.24C1076.2 1016.92 1072.3 1015.44 1069.27 1012.77C1066.24 1010.1 1064.28 1006.42 1063.77 1002.42L1037.19 796.526C1036.1 788.195 1032.02 780.544 1025.7 775C1019.39 769.456 1011.27 766.396 1002.87 766.392H668.395C663.478 766.386 658.618 767.43 654.137 769.453C649.656 771.476 645.659 774.431 642.411 778.122C639.163 781.812 636.74 786.153 635.303 790.855C633.867 795.556 633.449 800.51 634.079 805.386L659.036 998.112C659.338 1000.45 659.136 1002.83 658.444 1005.09C657.753 1007.35 656.587 1009.44 655.025 1011.21C653.462 1012.98 651.54 1014.4 649.386 1015.37C647.232 1016.34 644.896 1016.84 642.533 1016.83H601.449C597.405 1016.83 593.498 1015.36 590.46 1012.69C587.423 1010.02 585.463 1006.33 584.947 1002.32L558.399 796.433C557.297 788.107 553.211 780.464 546.9 774.922C540.59 769.38 532.483 766.316 524.084 766.298H385.888C381.848 766.287 377.948 764.811 374.913 762.144C371.878 759.476 369.914 755.798 369.386 751.792L364.051 710.333C363.75 707.993 363.951 705.616 364.641 703.359C365.33 701.103 366.494 699.02 368.052 697.248C369.611 695.477 371.53 694.058 373.68 693.087C375.83 692.116 378.163 691.614 380.523 691.616H505.523C510.437 691.616 515.296 690.569 519.774 688.544C524.252 686.52 528.248 683.565 531.494 679.875C534.741 676.186 537.165 671.847 538.603 667.148C540.042 662.448 540.463 657.496 539.838 652.622L511.138 430.291C510.049 421.957 505.968 414.303 499.655 408.753C493.342 403.204 485.228 400.138 476.823 400.125H338.627C334.593 400.121 330.698 398.651 327.667 395.988C324.637 393.325 322.678 389.651 322.156 385.651L316.79 344.161C316.488 341.818 316.69 339.438 317.382 337.179C318.073 334.92 319.239 332.836 320.801 331.064C322.364 329.292 324.286 327.874 326.44 326.905C328.594 325.935 330.93 325.437 333.293 325.443H458.262C463.178 325.448 468.039 324.405 472.519 322.382C477 320.359 480.998 317.404 484.245 313.713C487.493 310.022 489.916 305.681 491.353 300.98C492.79 296.278 493.207 291.325 492.577 286.449L467.62 93.7232C467.319 91.383 467.52 89.0055 468.21 86.7491C468.9 84.4927 470.063 82.4094 471.621 80.6381C473.18 78.8668 475.099 77.4482 477.249 76.477C479.399 75.5058 481.732 75.0042 484.092 75.0059H525.145C529.185 75.0164 533.085 76.4925 536.12 79.1602C539.155 81.8279 541.119 85.5059 541.647 89.5118L568.195 295.402C569.291 303.731 573.375 311.377 579.687 316.921C585.999 322.464 594.109 325.526 602.51 325.537H937.112C942.029 325.542 946.889 324.498 951.37 322.475C955.851 320.453 959.848 317.497 963.096 313.807C966.344 310.116 968.767 305.775 970.204 301.074C971.64 296.372 972.058 291.418 971.428 286.542L946.471 93.8167C946.17 91.4766 946.37 89.099 947.06 86.8427C947.75 84.5863 948.913 82.503 950.472 80.7317C952.031 78.9604 953.949 77.5418 956.1 76.5706C958.25 75.5994 960.583 75.0978 962.942 75.0994H1004C1008.03 75.1166 1011.93 76.595 1014.96 79.2614C1018 81.9279 1019.96 85.6022 1020.5 89.6054L1047.05 295.496C1048.14 303.827 1052.22 311.478 1058.53 317.022C1064.84 322.566 1072.96 325.626 1081.36 325.63H1219.74C1223.78 325.642 1227.68 327.119 1230.71 329.787C1233.74 332.456 1235.69 336.133 1236.21 340.136L1241.58 381.502C1241.88 383.844 1241.68 386.225 1240.99 388.483C1240.3 390.742 1239.13 392.827 1237.57 394.598C1236.01 396.37 1234.08 397.788 1231.93 398.757C1229.78 399.727 1227.44 400.225 1225.08 400.219H1099.95C1095.04 400.219 1090.18 401.266 1085.7 403.29C1081.22 405.315 1077.23 408.27 1073.98 411.96C1070.73 415.649 1068.31 419.988 1066.87 424.687C1065.43 429.387 1065.01 434.339 1065.64 439.213L1094.34 661.575C1095.43 669.906 1099.51 677.557 1105.82 683.101C1112.14 688.645 1120.25 691.705 1128.65 691.71H1266.85C1270.89 691.713 1274.79 693.187 1277.83 695.856C1280.87 698.525 1282.83 702.207 1283.35 706.215L1288.69 747.674C1288.99 750.014 1288.79 752.392 1288.1 754.648C1287.41 756.905 1286.24 758.988 1284.68 760.759C1283.13 762.531 1281.21 763.949 1279.06 764.92C1276.91 765.892 1274.57 766.393 1272.21 766.392H1147.21C1142.29 766.376 1137.43 767.413 1132.94 769.433C1128.46 771.452 1124.46 774.408 1121.21 778.101C1117.96 781.793 1115.53 786.139 1114.1 790.845C1112.67 795.551 1112.26 800.509 1112.9 805.386L1137.86 998.112C1138.15 1000.45 1137.94 1002.83 1137.24 1005.08C1136.55 1007.34 1135.38 1009.42 1133.82 1011.19C1132.26 1012.96 1130.34 1014.37 1128.19 1015.35C1126.04 1016.32 1123.71 1016.82 1121.35 1016.83L1121.29 1016.92ZM668.395 765.674H1002.93C1011.52 765.693 1019.8 768.828 1026.25 774.498C1032.69 780.167 1036.86 787.984 1037.97 796.495L1064.55 1002.39C1065.04 1006.19 1066.89 1009.68 1069.75 1012.22C1072.62 1014.76 1076.31 1016.18 1080.14 1016.21H1121.2C1123.44 1016.19 1125.66 1015.7 1127.7 1014.77C1129.74 1013.84 1131.56 1012.48 1133.03 1010.79C1134.51 1009.1 1135.6 1007.11 1136.25 1004.96C1136.9 1002.82 1137.09 1000.55 1136.79 998.33L1111.84 805.604C1111.2 800.621 1111.62 795.559 1113.09 790.753C1114.56 785.948 1117.03 781.512 1120.35 777.739C1123.67 773.966 1127.75 770.944 1132.33 768.875C1136.91 766.805 1141.88 765.735 1146.9 765.736H1271.87C1274.12 765.725 1276.33 765.235 1278.37 764.301C1280.41 763.367 1282.23 762.01 1283.7 760.319C1285.18 758.629 1286.28 756.644 1286.93 754.496C1287.58 752.348 1287.76 750.086 1287.47 747.861L1282.1 706.403C1281.61 702.603 1279.76 699.109 1276.9 696.568C1274.03 694.028 1270.34 692.612 1266.51 692.583H1128.31C1119.73 692.558 1111.45 689.42 1105.01 683.752C1098.56 678.083 1094.4 670.27 1093.28 661.762L1064.58 439.4C1063.93 434.417 1064.36 429.355 1065.83 424.55C1067.3 419.745 1069.77 415.308 1073.09 411.535C1076.41 407.762 1080.49 404.74 1085.07 402.671C1089.65 400.601 1094.62 399.531 1099.64 399.533H1224.61C1226.85 399.521 1229.07 399.031 1231.11 398.098C1233.15 397.164 1234.97 395.806 1236.44 394.115C1237.92 392.425 1239.02 390.44 1239.67 388.292C1240.32 386.144 1240.5 383.882 1240.21 381.658L1235.34 340.136C1234.84 336.342 1232.99 332.856 1230.12 330.317C1227.26 327.779 1223.57 326.359 1219.74 326.317H1081.55C1072.96 326.299 1064.67 323.165 1058.22 317.496C1051.77 311.827 1047.6 304.009 1046.48 295.496L1019.94 89.6054C1019.44 85.8082 1017.59 82.3184 1014.72 79.7788C1011.86 77.2393 1008.17 75.8212 1004.34 75.7858H963.005C960.763 75.8026 958.549 76.2951 956.512 77.2308C954.474 78.1664 952.658 79.5238 951.183 81.2133C949.709 82.9028 948.61 84.886 947.959 87.0317C947.308 89.1774 947.12 91.4369 947.407 93.6608L972.363 286.387C973.028 291.395 972.611 296.487 971.141 301.321C969.671 306.154 967.181 310.616 963.841 314.406C960.5 318.196 956.386 321.226 951.775 323.291C947.164 325.357 942.165 326.41 937.112 326.379H602.572C593.985 326.362 585.697 323.227 579.248 317.558C572.799 311.889 568.627 304.071 567.508 295.558L540.961 89.6678C540.465 85.8706 538.613 82.3807 535.746 79.8412C532.88 77.3017 529.193 75.8836 525.363 75.8482H484.185C481.941 75.86 479.726 76.3492 477.686 77.2832C475.645 78.2172 473.827 79.5746 472.352 81.2653C470.877 82.9559 469.778 84.9412 469.129 87.0891C468.48 89.237 468.295 91.4984 468.587 93.7232L493.544 286.449C494.199 291.452 493.774 296.538 492.3 301.364C490.825 306.19 488.334 310.644 484.995 314.427C481.655 318.21 477.544 321.234 472.939 323.295C468.333 325.357 463.339 326.408 458.293 326.379H333.324C331.082 326.396 328.868 326.889 326.831 327.824C324.793 328.76 322.977 330.117 321.503 331.807C320.028 333.496 318.929 335.479 318.278 337.625C317.627 339.771 317.439 342.03 317.726 344.254L322.936 385.651C323.432 389.448 325.284 392.938 328.15 395.477C331.017 398.017 334.704 399.435 338.533 399.47H476.729C485.316 399.488 493.604 402.622 500.054 408.291C506.503 413.96 510.675 421.778 511.793 430.291L540.462 652.653C541.11 657.634 540.687 662.696 539.223 667.501C537.759 672.306 535.286 676.744 531.971 680.517C528.655 684.291 524.572 687.313 519.995 689.383C515.418 691.453 510.453 692.523 505.429 692.521H380.585C378.341 692.533 376.126 693.022 374.085 693.956C372.045 694.89 370.227 696.247 368.752 697.938C367.276 699.628 366.178 701.614 365.529 703.762C364.88 705.91 364.695 708.171 364.987 710.396L370.322 751.855C370.818 755.652 372.67 759.141 375.536 761.681C378.403 764.221 382.09 765.639 385.919 765.674H524.084C532.667 765.693 540.951 768.828 547.396 774.498C553.84 780.167 558.005 787.984 559.117 796.495L585.695 1002.39C586.185 1006.19 588.036 1009.68 590.903 1012.22C593.771 1014.76 597.462 1016.18 601.293 1016.21H642.627C644.871 1016.19 647.086 1015.7 649.127 1014.77C651.167 1013.84 652.985 1012.48 654.46 1010.79C655.936 1009.1 657.034 1007.11 657.683 1004.96C658.332 1002.82 658.517 1000.55 658.225 998.33L633.268 805.604C632.625 800.621 633.052 795.559 634.52 790.753C635.988 785.948 638.464 781.512 641.782 777.739C645.1 773.966 649.185 770.944 653.763 768.875C658.341 766.805 663.308 765.735 668.332 765.736L668.395 765.674ZM984.374 692.521H649.833C641.247 692.503 632.958 689.369 626.509 683.7C620.06 678.031 615.888 670.213 614.77 661.699L586.07 439.338C585.427 434.355 585.853 429.292 587.321 424.487C588.79 419.682 591.265 415.245 594.583 411.473C597.901 407.7 601.986 404.678 606.564 402.608C611.142 400.539 616.109 399.469 621.133 399.47H955.674C964.26 399.488 972.549 402.622 978.998 408.291C985.447 413.96 989.619 421.778 990.738 430.291L1019.41 652.653C1020.05 657.633 1019.62 662.693 1018.16 667.496C1016.69 672.299 1014.22 676.734 1010.9 680.507C1007.59 684.279 1003.51 687.301 998.933 689.373C994.359 691.445 989.395 692.518 984.374 692.521V692.521ZM621.133 400.25C616.219 400.25 611.361 401.297 606.882 403.322C602.404 405.346 598.409 408.301 595.162 411.991C591.915 415.68 589.492 420.019 588.053 424.719C586.614 429.418 586.193 434.37 586.818 439.244L615.518 661.606C616.615 669.934 620.698 677.581 627.01 683.124C633.322 688.668 641.433 691.729 649.833 691.741H984.374C989.29 691.746 994.15 690.702 998.631 688.679C1003.11 686.656 1007.11 683.701 1010.36 680.011C1013.6 676.32 1016.03 671.979 1017.46 667.277C1018.9 662.576 1019.32 657.622 1018.69 652.746L990.02 430.416C988.931 422.082 984.85 414.428 978.537 408.878C972.224 403.329 964.11 400.262 955.705 400.25H621.133Z" fill="#B89685"/>
<path d="M860.746 896.757L885.234 911.076L922.201 856.546L897.713 842.196L860.746 896.757Z" fill="#FBB7C0"/>
<path d="M886.108 910.265L865.987 885.527C865.647 885.096 865.162 884.803 864.621 884.706C864.081 884.608 863.524 884.712 863.054 884.997L841.218 898.099C840.678 898.449 840.218 898.909 839.868 899.449C839.518 899.989 839.285 900.596 839.185 901.232C839.085 901.867 839.12 902.517 839.288 903.138C839.455 903.759 839.751 904.338 840.157 904.837C847.332 913.322 851.231 917.066 860.091 927.953C865.519 934.66 876.094 949.073 883.643 958.306C891.193 967.54 900.707 960.584 898.399 956.06C888.042 935.783 887.636 924.865 887.792 915.038C887.818 913.297 887.221 911.605 886.108 910.265Z" fill="#504746"/>
<path d="M895.311 925.769H894.718C890.725 925.145 886.482 918.157 884.33 914.071C884.283 913.986 884.265 913.888 884.276 913.792C884.287 913.695 884.329 913.605 884.394 913.533C884.459 913.461 884.545 913.411 884.639 913.39C884.734 913.369 884.833 913.378 884.923 913.416C886.233 913.977 897.775 919.062 898.493 922.774C898.554 923.109 898.529 923.454 898.42 923.776C898.311 924.098 898.121 924.387 897.869 924.615C897.543 924.971 897.148 925.257 896.708 925.455C896.269 925.653 895.793 925.76 895.311 925.769V925.769ZM885.952 914.788C889.228 920.684 892.597 924.397 894.999 924.771C895.425 924.845 895.864 924.809 896.273 924.667C896.682 924.525 897.049 924.282 897.338 923.96C897.471 923.833 897.571 923.676 897.631 923.502C897.69 923.329 897.708 923.143 897.682 922.962C897.089 920.466 889.82 916.629 885.952 914.788Z" fill="#B89685"/>
<path d="M893.938 915.974C890.725 915.948 887.547 915.302 884.579 914.071C884.505 914.04 884.442 913.988 884.398 913.921C884.353 913.855 884.33 913.776 884.33 913.696C884.316 913.613 884.326 913.528 884.359 913.45C884.392 913.373 884.447 913.307 884.517 913.26C884.798 913.073 891.099 908.799 895.56 909.672C896.194 909.792 896.798 910.038 897.334 910.398C897.87 910.757 898.328 911.221 898.68 911.762C899.647 913.228 899.272 914.164 898.68 914.663C897.323 915.688 895.628 916.156 893.938 915.974V915.974ZM885.734 913.572C889.571 915.1 896.621 915.631 898.056 914.04C898.056 913.884 898.586 913.447 897.806 912.293C897.531 911.853 897.167 911.476 896.737 911.186C896.307 910.896 895.821 910.699 895.311 910.608C891.876 910.624 888.53 911.702 885.734 913.696V913.572Z" fill="#B89685"/>
<path d="M822.313 467.164L823.499 471.906L824.84 477.022C825.745 480.453 826.774 483.916 827.803 487.379C829.883 494.304 832.077 501.219 834.386 508.124C836.819 514.987 839.159 521.912 841.81 528.744C843.089 532.144 844.368 535.607 845.71 539.007L847.301 543.094C847.633 543.798 848.052 544.459 848.548 545.059C852.438 548.975 857.162 551.961 862.368 553.794C868.755 556.389 875.337 558.475 882.052 560.033C888.978 561.655 896.09 562.997 903.297 564.12C910.503 565.243 917.896 566.116 925.133 566.896L925.383 581.589C909.827 583.207 894.146 583.207 878.59 581.589C870.448 580.772 862.398 579.216 854.538 576.941C850.247 575.665 846.073 574.026 842.06 572.043C837.46 569.818 833.247 566.869 829.582 563.309C827.459 561.198 825.624 558.817 824.122 556.227C823.701 555.551 823.316 554.854 822.968 554.137L822.251 552.671L821.003 550.082C819.318 546.619 817.634 543.156 816.074 539.631C812.954 532.581 809.835 525.5 807.09 518.262C804.344 511.025 801.693 503.725 799.322 496.425C798.168 492.682 797.076 488.907 796.202 485.101L794.705 479.299C794.268 477.271 793.863 475.524 793.426 473.06L822.313 467.164Z" fill="#FBB7C0"/>
<path d="M813.048 436.249C824.746 439.213 832.951 487.379 832.951 487.379L800.695 509.215C800.695 509.215 769.78 460.644 778.858 447.76C788.154 434.471 795.984 431.882 813.048 436.249Z" fill="#B89685"/>
<path opacity="0.2" d="M813.048 436.249C824.746 439.213 832.951 487.379 832.951 487.379L800.695 509.215C800.695 509.215 769.78 460.644 778.858 447.76C788.154 434.471 795.984 431.882 813.048 436.249Z" fill="black"/>
<path d="M814.202 453.75L789.246 459.552L786.844 484.041C791.091 492.697 795.776 501.13 800.882 509.309L820.441 496.02C819.412 484.758 817.322 461.362 814.202 453.75Z" fill="#B89685"/>
<path opacity="0.3" d="M814.202 453.75L789.246 459.552L786.844 484.041C791.091 492.697 795.776 501.13 800.882 509.309L820.441 496.02C819.412 484.758 817.322 461.362 814.202 453.75Z" fill="black"/>
<path d="M920.829 566.584L940.95 546.183L943.601 574.914C943.601 574.914 928.503 585.146 918.052 579.655L920.829 566.584Z" fill="#FBB7C0"/>
<path d="M964.627 543.094L965.532 567.301L943.601 574.882L940.95 546.151L964.627 543.094Z" fill="#FBB7C0"/>
<path d="M820.348 952.878H848.736L857.876 887.118H829.457L820.348 952.878Z" fill="#FBB7C0"/>
<path d="M850.607 944.393L822.532 929.388C822.051 929.125 821.491 929.046 820.957 929.166C820.423 929.287 819.951 929.599 819.63 930.043L804.563 950.601C804.204 951.134 803.961 951.737 803.849 952.37C803.738 953.003 803.761 953.652 803.917 954.276C804.073 954.899 804.358 955.483 804.754 955.989C805.15 956.496 805.648 956.913 806.216 957.214C816.105 962.268 821.159 964.202 833.544 970.784C841.155 974.84 860.247 986.039 870.791 991.654C881.335 997.269 887.387 987.131 883.519 983.855C866.143 969.193 857.72 957.246 854.07 948.168C853.412 946.531 852.182 945.189 850.607 944.393V944.393Z" fill="#504746"/>
<path d="M693.944 325.35C693.226 356.545 655.043 343.661 650.769 379.598C648.367 399.782 623.91 401.872 619.574 420.153C615.331 437.84 632.582 450.693 619.574 472.717C602.167 502.197 592.434 553.607 690.107 558.941C762.73 562.903 788.279 489.126 775.957 443.799C763.634 398.472 756.771 391.484 770.279 379.006C783.787 366.528 805.436 360.288 798.511 322.168C793.145 292.688 780.106 296.151 780.106 296.151C779.451 279.866 695.659 255.94 693.944 325.35Z" fill="#504746"/>
<path d="M922.201 856.546L903.141 884.653L878.621 870.335L897.682 842.196L922.201 856.546Z" fill="#B6244F"/>
<path d="M829.457 887.149H857.876L853.134 921.028H824.746L829.457 887.149Z" fill="#B6244F"/>
<path d="M813.048 436.249C813.048 436.249 826.587 441.022 799.478 607.606H684.055C685.989 560.813 686.02 531.739 663.591 435.407C679.739 432.084 696.108 429.936 712.567 428.981C730.004 427.732 747.508 427.732 764.945 428.981C787.53 431.04 813.048 436.249 813.048 436.249Z" fill="#B89685"/>
<path opacity="0.2" d="M813.048 436.249C813.048 436.249 826.587 441.022 799.478 607.606H684.055C685.989 560.813 686.02 531.739 663.591 435.407C679.739 432.084 696.108 429.936 712.567 428.981C730.004 427.732 747.508 427.732 764.945 428.981C787.53 431.04 813.048 436.249 813.048 436.249Z" fill="black"/>
<path d="M717.871 370.053C721.177 386.898 724.484 417.751 712.692 429.012C712.692 429.012 717.309 446.107 748.598 446.107C778.733 446.107 765.069 429.012 765.069 429.012C746.352 424.52 746.758 410.576 750.033 397.474L717.871 370.053Z" fill="#FBB7C0"/>
<path d="M730.973 381.221L750.002 397.442C749.199 400.509 748.666 403.641 748.411 406.801C741.205 405.772 731.347 397.879 730.598 390.361C730.177 387.316 730.304 384.221 730.973 381.221V381.221Z" fill="#B6244F"/>
<path d="M715.905 325.63C712.786 353.706 710.664 365.373 722.144 382.094C739.364 407.238 774.459 405.116 786.002 378.663C796.39 354.86 799.977 313.152 774.834 297.211C769.309 293.679 762.972 291.62 756.427 291.229C749.881 290.837 743.345 292.127 737.439 294.976C731.532 297.824 726.453 302.136 722.684 307.502C718.915 312.867 716.581 319.108 715.905 325.63V325.63Z" fill="#FBB7C0"/>
<path d="M715.749 342.164C719.711 349.526 780.355 315.991 773.461 297.991C766.567 279.991 748.505 286.511 748.505 286.511C748.505 286.511 716.467 293.811 711.07 310.438C705.673 327.065 715.749 342.164 715.749 342.164Z" fill="#504746"/>
<path d="M704.082 345.377C704.644 350.78 707.243 355.766 711.351 359.322C716.841 363.97 722.3 359.821 723.049 353.083C723.735 347.062 721.708 337.485 715.125 335.301C708.543 333.117 703.458 338.857 704.082 345.377Z" fill="#FBB7C0"/>
<path d="M799.478 607.606C799.478 607.606 978.977 624.889 977.105 711.456C975.171 801.518 910.503 882.626 910.503 882.626L876.593 863.441C876.593 863.441 914.028 784.173 912.094 730.174C910.534 684.004 738.397 675.145 738.397 675.145L714.657 607.606H799.478Z" fill="#B89685"/>
<path opacity="0.6" d="M799.478 607.606C799.478 607.606 978.977 624.889 977.105 711.456C975.171 801.518 910.503 882.626 910.503 882.626L876.593 863.441C876.593 863.441 914.028 784.173 912.094 730.174C910.534 684.004 738.397 675.145 738.397 675.145L714.657 607.606H799.478Z" fill="#FAFAFA"/>
<path d="M862.025 658.361L865.644 695.172C890.756 703.033 910.066 713.889 911.969 728.426C916.211 695.858 893.501 676.611 862.025 658.361Z" fill="#B89685"/>
<path opacity="0.4" d="M862.025 658.361L865.644 695.172C890.756 703.033 910.066 713.889 911.969 728.426C916.211 695.858 893.501 676.611 862.025 658.361Z" fill="#FAFAFA"/>
<path d="M769.031 607.606C769.031 607.606 892.191 648.41 895.31 698.916C901.05 791.909 860.153 914.476 860.153 914.476H821.284C821.284 914.476 823.467 833.15 828.115 748.891C833.918 643.045 647.182 747.425 684.179 607.606H769.031Z" fill="#B89685"/>
<path opacity="0.6" d="M769.031 607.606C769.031 607.606 892.191 648.41 895.31 698.916C901.05 791.909 860.153 914.476 860.153 914.476H821.284C821.284 914.476 823.467 833.15 828.115 748.891C833.918 643.045 647.182 747.425 684.179 607.606H769.031Z" fill="#FAFAFA"/>
<path d="M756.522 340.885C756.116 343.131 756.99 345.158 758.456 345.439C759.922 345.72 761.575 344.067 761.856 341.821C762.137 339.574 761.388 337.516 759.922 337.266C758.456 337.016 756.927 338.607 756.522 340.885Z" fill="#504746"/>
<path d="M781.977 345.439C781.603 347.685 782.445 349.713 783.943 349.994C785.44 350.275 787.062 348.652 787.343 346.375C787.624 344.098 786.875 342.101 785.378 341.821C783.88 341.54 782.383 343.162 781.977 345.439Z" fill="#504746"/>
<path d="M784.723 341.977L790.4 341.384C790.4 341.384 786.875 345.096 784.723 341.977Z" fill="#504746"/>
<path d="M774.553 348.216C775.625 353.63 777.419 358.877 779.887 363.814C778.586 364.411 777.17 364.72 775.738 364.72C774.306 364.72 772.891 364.411 771.589 363.814L774.553 348.216Z" fill="#B6244F"/>
<path d="M758.737 369.865H758.55C754.016 367.733 750.467 363.951 748.629 359.29C748.61 359.237 748.602 359.18 748.606 359.124C748.61 359.067 748.626 359.013 748.653 358.963C748.679 358.913 748.716 358.869 748.76 358.834C748.804 358.799 748.856 358.774 748.91 358.76C748.961 358.74 749.016 358.731 749.071 358.733C749.125 358.735 749.179 358.748 749.229 358.771C749.278 358.794 749.323 358.827 749.359 358.868C749.395 358.909 749.423 358.957 749.441 359.009C751.2 363.414 754.536 367.006 758.799 369.085C758.901 369.133 758.98 369.218 759.021 369.322C759.061 369.427 759.06 369.543 759.018 369.647C758.989 369.701 758.949 369.748 758.9 369.786C758.852 369.823 758.796 369.85 758.737 369.865V369.865Z" fill="#504746"/>
<path d="M753.683 330.777C753.562 330.777 753.443 330.749 753.334 330.695C753.226 330.641 753.132 330.562 753.059 330.465C752.974 330.392 752.905 330.301 752.858 330.199C752.811 330.096 752.786 329.985 752.786 329.872C752.786 329.76 752.811 329.649 752.858 329.546C752.905 329.444 752.974 329.353 753.059 329.28C754.566 327.892 756.383 326.886 758.358 326.343C760.334 325.8 762.41 325.738 764.414 326.16C764.634 326.218 764.821 326.361 764.935 326.557C765.049 326.753 765.081 326.986 765.023 327.205C764.965 327.424 764.822 327.612 764.626 327.726C764.43 327.84 764.197 327.871 763.978 327.814C762.237 327.467 760.438 327.544 758.734 328.038C757.029 328.532 755.468 329.429 754.182 330.652C754.031 330.741 753.858 330.785 753.683 330.777V330.777Z" fill="#504746"/>
<path d="M795.891 335.301C795.725 335.289 795.566 335.234 795.429 335.141C795.292 335.048 795.182 334.92 795.111 334.771C794.447 333.132 793.406 331.674 792.073 330.514C790.739 329.354 789.151 328.525 787.437 328.095C787.21 328.056 787.007 327.93 786.872 327.743C786.738 327.556 786.683 327.324 786.719 327.096C786.764 326.875 786.894 326.68 787.08 326.552C787.266 326.424 787.494 326.373 787.717 326.41C789.718 326.872 791.577 327.812 793.136 329.148C794.695 330.484 795.908 332.178 796.67 334.084C796.722 334.186 796.751 334.297 796.756 334.41C796.762 334.524 796.743 334.637 796.702 334.743C796.661 334.849 796.598 334.945 796.517 335.025C796.436 335.105 796.34 335.167 796.234 335.207C796.131 335.271 796.012 335.304 795.891 335.301V335.301Z" fill="#504746"/>
<path d="M861.245 954.501C857.907 954.501 853.384 951.007 850.857 948.761C850.781 948.705 850.724 948.627 850.696 948.537C850.668 948.447 850.67 948.35 850.701 948.262C850.73 948.172 850.783 948.092 850.854 948.032C850.926 947.971 851.014 947.932 851.107 947.918C852.261 947.918 862.399 946.982 864.521 949.759C864.749 950.051 864.895 950.399 864.944 950.766C864.993 951.133 864.944 951.507 864.801 951.849C864.63 952.45 864.307 952.998 863.865 953.44C863.423 953.882 862.876 954.204 862.275 954.376C861.937 954.452 861.592 954.494 861.245 954.501V954.501ZM852.323 948.792C856.441 952.223 859.997 953.97 862.025 953.44C862.476 953.314 862.886 953.072 863.214 952.738C863.543 952.404 863.778 951.99 863.897 951.537C864.015 951.362 864.078 951.156 864.078 950.944C864.078 950.733 864.015 950.527 863.897 950.352C862.399 948.542 855.848 948.573 852.323 948.792V948.792Z" fill="#B89685"/>
<path d="M851.169 948.885C851.084 948.892 850.998 948.871 850.926 948.826C850.853 948.781 850.796 948.715 850.763 948.636C850.725 948.564 850.705 948.483 850.705 948.402C850.705 948.32 850.725 948.24 850.763 948.168C850.919 947.887 854.756 940.743 858.687 939.807C859.159 939.671 859.656 939.648 860.139 939.74C860.621 939.832 861.075 940.037 861.463 940.338C861.902 940.565 862.247 940.94 862.435 941.397C862.624 941.854 862.644 942.363 862.493 942.833C861.651 945.703 854.632 948.792 851.2 948.885H851.169ZM859.529 940.65H858.874C856.067 941.305 853.134 945.89 852.011 947.731C855.287 947.232 860.902 944.611 861.557 942.459C861.557 942.116 861.713 941.585 860.902 941.024C860.494 940.76 860.015 940.629 859.529 940.65V940.65Z" fill="#B89685"/>
<path d="M759.236 337.267L764.945 336.674C764.945 336.674 761.388 340.417 759.236 337.267Z" fill="#504746"/>
<path d="M682.432 600.899L681.528 611.225C681.122 612.036 682.058 612.847 683.4 612.847H800.039C801.1 612.847 801.942 612.348 802.005 611.693L803.065 601.367C803.065 600.65 802.223 600.026 801.1 600.026H684.304C683.944 600.006 683.585 600.075 683.259 600.227C682.932 600.38 682.648 600.611 682.432 600.899V600.899Z" fill="#504746"/>
<path d="M698.124 613.908H695.004C694.38 613.908 693.912 613.596 693.944 613.19L695.41 599.776C695.41 599.371 696.003 599.059 696.626 599.059H699.746C700.37 599.059 700.838 599.371 700.807 599.776L699.34 613.19C699.278 613.596 698.779 613.908 698.124 613.908Z" fill="#B89685"/>
<path opacity="0.6" d="M698.124 613.908H695.004C694.38 613.908 693.912 613.596 693.944 613.19L695.41 599.776C695.41 599.371 696.003 599.059 696.626 599.059H699.746C700.37 599.059 700.838 599.371 700.807 599.776L699.34 613.19C699.278 613.596 698.779 613.908 698.124 613.908Z" fill="#FAFAFA"/>
<path d="M791.274 613.908H788.154C787.53 613.908 787.062 613.596 787.125 613.19L788.591 599.776C788.591 599.371 789.152 599.059 789.776 599.059H792.896C793.52 599.059 793.988 599.371 793.925 599.776L792.459 613.19C792.366 613.596 791.898 613.908 791.274 613.908Z" fill="#B89685"/>
<path opacity="0.6" d="M791.274 613.908H788.154C787.53 613.908 787.062 613.596 787.125 613.19L788.591 599.776C788.591 599.371 789.152 599.059 789.776 599.059H792.896C793.52 599.059 793.988 599.371 793.925 599.776L792.459 613.19C792.366 613.596 791.898 613.908 791.274 613.908Z" fill="#FAFAFA"/>
<path d="M744.699 613.908H741.579C740.955 613.908 740.456 613.596 740.518 613.19L741.985 599.776C741.985 599.371 742.577 599.059 743.201 599.059H746.321C746.945 599.059 747.413 599.371 747.381 599.776L745.915 613.19C745.853 613.596 745.323 613.908 744.699 613.908Z" fill="#B89685"/>
<path opacity="0.6" d="M744.699 613.908H741.579C740.955 613.908 740.456 613.596 740.518 613.19L741.985 599.776C741.985 599.371 742.577 599.059 743.201 599.059H746.321C746.945 599.059 747.413 599.371 747.381 599.776L745.915 613.19C745.853 613.596 745.323 613.908 744.699 613.908Z" fill="#FAFAFA"/>
<path d="M690.855 480.142L675.975 492.807C679.095 509.653 681.278 523.691 682.651 536.169C685.427 523.659 692.54 489.719 690.855 480.142Z" fill="#B89685"/>
<path opacity="0.3" d="M690.855 480.142L675.975 492.807C679.095 509.653 681.278 523.691 682.651 536.169C685.427 523.659 692.54 489.719 690.855 480.142Z" fill="black"/>
<path d="M1006.09 527.902H803.721L774.397 647.412H976.762L1006.09 527.902Z" fill="#FAFAFA"/>
<path d="M903.546 625.169L779.794 654.025L700.37 631.751L701.181 625.169H903.546Z" fill="#FAFAFA"/>
<path d="M680.935 476.491C678.533 484.446 675.913 492.651 673.573 500.761C671.233 508.872 668.769 517.046 666.648 525.188C664.526 533.33 662.499 541.44 660.939 549.395C660.19 553.357 659.473 557.319 659.005 561.062C658.671 563.691 658.494 566.337 658.474 568.986C659.16 571.111 660.336 573.045 661.906 574.632C664.273 577.202 666.897 579.522 669.736 581.558C676.231 586.184 683.084 590.283 690.231 593.818C697.562 597.592 705.237 601.024 713.067 604.206C720.897 607.388 728.883 610.445 736.713 613.564L733.094 627.665C724.141 626.261 715.625 624.264 706.952 622.112C698.28 619.959 689.826 617.121 681.31 614.001C672.51 610.784 664.029 606.753 655.979 601.96C651.505 599.283 647.323 596.147 643.501 592.601C638.699 588.267 635.062 582.796 632.925 576.691C632.338 574.832 631.93 572.92 631.709 570.983V569.485V568.362V566.366C631.709 563.745 631.709 561.25 631.709 558.785C631.958 553.919 632.489 549.426 633.175 544.747C634.454 535.638 636.294 526.841 638.229 518.169C642.212 500.909 647.074 483.865 652.797 467.102L680.935 476.491Z" fill="#FBB7C0"/>
<path d="M663.715 435.563C652.173 439.088 634.485 484.447 634.485 484.447L679.313 516.484C679.313 516.484 699.465 477.708 694.599 462.766C689.42 447.074 676.942 431.414 663.715 435.563Z" fill="#B89685"/>
<path opacity="0.2" d="M663.715 435.563C652.173 439.088 634.485 484.447 634.485 484.447L679.313 516.484C679.313 516.484 699.465 477.708 694.599 462.766C689.42 447.074 676.942 431.414 663.715 435.563Z" fill="black"/>
<path d="M730.879 614.438L757.832 607.606L744.979 633.468C744.979 633.468 726.792 634.247 720.772 624.109L730.879 614.438Z" fill="#FBB7C0"/>
<path d="M779.575 617.433L767.659 638.521L744.979 633.468L757.832 607.606L779.575 617.433Z" fill="#FBB7C0"/>
<path d="M1012.32 527.902H809.96L780.636 647.412H983.001L1012.32 527.902Z" fill="#504746"/>
<path d="M983.001 647.412L982.19 654.026H779.794L780.605 647.412H983.001Z" fill="#504746"/>
<path d="M768.626 308.972C795.891 319.891 798.137 335.582 796.702 324.57C794.643 308.754 781.509 297.367 772.088 293.53C766.567 291.222 756.709 304.199 768.626 308.972Z" fill="#504746"/>
<path d="M717.808 323.259L715.968 325.412C715.68 325.709 715.519 326.106 715.519 326.519C715.519 326.933 715.68 327.33 715.968 327.627L730.692 341.041C730.986 341.31 731.37 341.46 731.768 341.46C732.167 341.46 732.551 341.31 732.844 341.041L735.371 338.701C735.538 338.552 735.671 338.369 735.763 338.165C735.854 337.961 735.901 337.739 735.901 337.516C735.901 337.292 735.854 337.071 735.763 336.866C735.671 336.662 735.538 336.48 735.371 336.33L719.93 323.103C719.619 322.863 719.231 322.746 718.839 322.775C718.447 322.804 718.08 322.976 717.808 323.259Z" fill="#B89685"/>
<path opacity="0.3" d="M717.808 323.259L715.968 325.412C715.68 325.709 715.519 326.106 715.519 326.519C715.519 326.933 715.68 327.33 715.968 327.627L730.692 341.041C730.986 341.31 731.37 341.46 731.768 341.46C732.167 341.46 732.551 341.31 732.844 341.041L735.371 338.701C735.538 338.552 735.671 338.369 735.763 338.165C735.854 337.961 735.901 337.739 735.901 337.516C735.901 337.292 735.854 337.071 735.763 336.866C735.671 336.662 735.538 336.48 735.371 336.33L719.93 323.103C719.619 322.863 719.231 322.746 718.839 322.775C718.447 322.804 718.08 322.976 717.808 323.259Z" fill="black"/>
<path d="M714.034 427.015C714.346 429.386 716.966 441.084 739.24 445.483C739.24 445.483 732.626 452.689 728.883 469.94C728.883 469.94 689.826 454.623 701.68 429.792C701.774 429.593 701.913 429.418 702.086 429.283C702.26 429.147 702.463 429.054 702.678 429.012L713.534 426.703C713.588 426.69 713.643 426.687 713.698 426.695C713.752 426.704 713.804 426.723 713.851 426.752C713.898 426.781 713.938 426.82 713.969 426.865C714.001 426.91 714.023 426.961 714.034 427.015V427.015Z" fill="#B89685"/>
<path opacity="0.6" d="M714.034 427.015C714.346 429.386 716.966 441.084 739.24 445.483C739.24 445.483 732.626 452.689 728.883 469.94C728.883 469.94 689.826 454.623 701.68 429.792C701.774 429.593 701.913 429.418 702.086 429.283C702.26 429.147 702.463 429.054 702.678 429.012L713.534 426.703C713.588 426.69 713.643 426.687 713.698 426.695C713.752 426.704 713.804 426.723 713.851 426.752C713.898 426.781 713.938 426.82 713.969 426.865C714.001 426.91 714.023 426.961 714.034 427.015V427.015Z" fill="#FAFAFA"/>
<path d="M763.79 428.825C766.473 431.664 773.804 441.303 755.274 445.733C755.274 445.733 766.535 451.972 770.279 469.223C770.279 469.223 798.012 450.163 772.775 429.449C772.745 429.435 772.713 429.428 772.681 429.428C772.649 429.428 772.617 429.435 772.587 429.449L764.133 428.264C764.069 428.269 764.007 428.289 763.953 428.322C763.898 428.356 763.852 428.402 763.818 428.457C763.785 428.511 763.765 428.573 763.76 428.638C763.755 428.702 763.765 428.766 763.79 428.825V428.825Z" fill="#B89685"/>
<path opacity="0.6" d="M763.79 428.825C766.473 431.664 773.804 441.303 755.274 445.733C755.274 445.733 766.535 451.972 770.279 469.223C770.279 469.223 798.012 450.163 772.775 429.449C772.745 429.435 772.713 429.428 772.681 429.428C772.649 429.428 772.617 429.435 772.587 429.449L764.133 428.264C764.069 428.269 764.007 428.289 763.953 428.322C763.898 428.356 763.852 428.402 763.818 428.457C763.785 428.511 763.765 428.573 763.76 428.638C763.755 428.702 763.765 428.766 763.79 428.825V428.825Z" fill="#FAFAFA"/>
<path d="M1028.55 249.326C1023.8 200.317 980.724 160.606 932.34 160.637C883.955 160.668 848.517 200.38 853.353 249.388C855.099 265.29 860.626 280.542 869.472 293.871C878.319 307.2 890.227 318.218 904.201 326.004L903.421 357.2L929.376 335.831C935.995 337.363 942.765 338.148 949.56 338.17C997.944 338.077 1033.32 298.302 1028.55 249.326Z" fill="#B89685"/>
<path opacity="0.6" d="M1028.55 249.326C1023.8 200.317 980.724 160.606 932.34 160.637C883.955 160.668 848.517 200.38 853.353 249.388C855.099 265.29 860.626 280.542 869.472 293.871C878.319 307.2 890.227 318.218 904.201 326.004L903.421 357.2L929.376 335.831C935.995 337.363 942.765 338.148 949.56 338.17C997.944 338.077 1033.32 298.302 1028.55 249.326Z" fill="#FAFAFA"/>
<path d="M948.343 233.915C926.912 227.458 911.782 204.529 911.782 204.529C911.782 204.529 905.168 204.155 905.543 210.207C906.235 218.586 910.081 226.39 916.305 232.043L906.26 231.482C902.726 231.282 899.184 231.672 895.778 232.636L892.659 233.541C891.323 233.947 890.087 234.626 889.026 235.534C887.966 236.442 887.106 237.56 886.499 238.818C885.892 240.075 885.553 241.444 885.501 242.84C885.45 244.235 885.689 245.625 886.201 246.924L892.877 266.608C895.089 272.976 899.518 278.335 905.356 281.707C910.297 284.654 916.095 285.831 921.796 285.045C931.84 283.516 947.469 281.176 950.152 280.677L957.358 280.053L955.237 235.912L948.343 233.915Z" fill="#B6244F"/>
<path d="M986.027 286.012H957.951C956.87 285.974 955.839 285.551 955.043 284.818C954.248 284.086 953.741 283.093 953.615 282.019L948.748 231.794C948.686 231.292 948.732 230.782 948.883 230.299C949.033 229.815 949.285 229.37 949.622 228.992C949.959 228.614 950.372 228.312 950.835 228.107C951.297 227.901 951.798 227.797 952.305 227.801H980.381C981.472 227.832 982.514 228.256 983.317 228.996C984.12 229.736 984.628 230.74 984.748 231.825L989.614 282.019C989.672 282.523 989.622 283.033 989.467 283.516C989.313 284 989.058 284.445 988.719 284.822C988.38 285.199 987.964 285.5 987.5 285.705C987.036 285.911 986.534 286.015 986.027 286.012Z" fill="#B89685"/>
<path d="M573.654 489.281L545.578 462.672C545.982 457.123 545.919 451.551 545.391 446.013C540.119 391.858 492.514 347.966 439.045 347.997C385.576 348.028 346.519 391.952 351.698 446.107C356.876 500.262 404.543 544.154 458.012 544.123C474.493 544.396 490.705 539.925 504.715 531.241C518.725 522.557 529.943 510.028 537.03 495.146L573.654 489.281Z" fill="#B89685"/>
<path d="M493.45 410.98C478.819 397.473 457.232 397.504 445.253 410.98C430.622 397.504 409.035 397.504 397.025 410.98C385.015 424.457 387.136 446.356 401.767 459.833L454.799 508.653L498.254 459.801C510.202 446.325 508.081 424.457 493.45 410.98Z" fill="#B89685"/>
<path opacity="0.6" d="M493.45 410.98C478.819 397.473 457.232 397.504 445.253 410.98C430.622 397.504 409.035 397.504 397.025 410.98C385.015 424.457 387.136 446.356 401.767 459.833L454.799 508.653L498.254 459.801C510.202 446.325 508.081 424.457 493.45 410.98Z" fill="#B6244F"/>
</svg>
